<svg width="50" height="100" viewBox="0 0 50 100" fill="none" xmlns="http://www.w3.org/2000/svg">
<g clip-path="url(#clip0_1_2)">
<path d="M44.5625 17.9297C44.5 17.5469 44.3672 16.8047 44.2656 16.2891C43.7578 13.8047 43.7344 13.5938 43.7422 11.6406C43.7578 9.74219 43.6484 7.8125 43.5156 7.46094C43.4062 7.16406 43.1875 7.24219 43.0547 7.61719C42.9297 7.97656 42.9141 8.99219 42.9922 11.6406C43.0625 14.1484 43.2422 16.2188 43.5547 18.0859C43.8594 19.9219 43.7891 20.6406 43.1719 22.2031C42.7266 23.3438 42.5781 23.7578 42.5781 23.9219C42.5781 23.9922 42.4844 24.1563 42.375 24.2891C42.2187 24.4844 42.1094 24.5313 41.8828 24.5313C41.3672 24.5313 41.1875 24.1328 41.4531 23.5938C41.6172 23.2734 41.5625 23.1797 41.0078 22.7969C39.9687 22.0859 38.0781 21.2813 36.3047 20.8125C34.9844 20.4609 32.4609 19.6172 30.2734 18.7891C27.7578 17.8438 26.6797 17.5469 25.3984 17.4531C24.8672 17.4063 24.7344 17.4297 24.0625 17.6641L23.3203 17.9219H21.5625C19.7109 17.9219 19.1797 17.8516 18.3828 17.5C17.9687 17.3203 17.9766 17.1875 18.3984 17.0469C18.9375 16.8672 22.9375 16.7656 25.25 16.875C26.3828 16.9219 27.7031 16.9844 28.1875 17.0078C28.7812 17.0391 29.1016 17.0234 29.1562 16.9688C29.2891 16.8359 28.6406 16.5625 28.3281 16.6172C28.1953 16.6328 27.0937 16.5781 25.8828 16.4922C22.8047 16.2656 19.0781 16.2578 18.1406 16.4844C17.3828 16.6641 16.6719 16.9844 16.5625 17.1875C16.5234 17.2656 16.4375 17.5547 16.3672 17.8281C16.2344 18.4063 15.9766 18.6875 15.4531 18.8359C14.9141 18.9844 14.6094 18.9609 14.4453 18.7578C14.1406 18.3828 13.9297 17.2734 13.7109 14.8438C13.4609 12.0313 13.4141 10.6172 13.5078 7.92969C13.5547 6.51563 13.6094 4.57812 13.6328 3.64062C13.6641 2.70312 13.7109 1.75 13.7578 1.53125C13.7969 1.3125 13.8125 1.03906 13.7891 0.921875C13.7266 0.640624 13.4687 0.562499 13.2656 0.765624C13.0859 0.945312 13.0391 1.28906 12.8125 4.10156C12.4062 9.19531 12.3906 9.625 12.3828 15.7813C12.3828 21.6797 12.3828 21.6797 12.5625 22.2734C12.7656 22.9609 12.7812 23.3125 12.6172 23.6953C12.4531 24.1016 12.4687 24.625 12.6562 24.8594C12.7344 24.9688 13.0625 25.1875 13.3672 25.3516C13.6953 25.5234 14.1953 25.8906 14.5469 26.2266C15.2891 26.9141 15.6562 27.1094 16.8047 27.4219C17.6875 27.6641 17.9687 27.7734 17.9687 27.875C17.9609 28.0156 17.1719 29.3828 15.8828 31.4453C12.7266 36.5156 12.5156 37.0781 12.7266 39.7109C12.875 41.5156 13.1797 43.0781 13.7969 45.1172C14.1562 46.3203 14.2187 46.8906 14.0156 47.1172C13.9375 47.2109 13.0937 47.6719 12.1484 48.1406C8.78125 49.8281 7.48437 50.6719 7.10937 51.4063C6.89062 51.8359 6.79687 52.7969 6.79687 54.6484C6.79687 56.5547 6.71093 57.8281 6.44531 59.8047L6.25781 61.2109L6.5 61.4063C7.89062 62.5078 8.46875 62.8438 9.32812 63.0156C9.63281 63.0859 9.94531 63.1875 10.0156 63.2578C10.25 63.4688 10.4141 64.0234 10.375 64.4453C10.3125 65.0859 10.0781 65.3125 8.86718 65.8984C8.07031 66.2891 7.75781 66.4844 7.60156 66.6953C7.09375 67.3594 6.73437 67.6875 6.25 67.9297C5.29687 68.4141 5.16406 68.75 5.49218 69.8906C5.60937 70.2734 5.73437 70.8672 5.78125 71.2109C5.94531 72.4453 6.64062 73.4297 7.71875 73.9609C8.28906 74.25 8.34375 74.2578 9.25 74.2813C10.0859 74.3047 10.3047 74.2813 11.1328 74.0703C11.6484 73.9453 12.0703 73.8438 12.0781 73.8516C12.0859 73.8594 12.3203 74.3906 12.6094 75.0234C13.2422 76.4531 13.4844 76.8125 14.0078 77.1094C14.5703 77.4375 15.4922 77.7813 16.0703 77.8828C17.0312 78.0625 17.7109 77.8359 20.1016 76.5625C21.9219 75.5938 22.6797 75.125 23.9922 74.1641C24.9844 73.4453 25.3281 73.2891 25.4609 73.5078C25.4922 73.5547 25.5078 74.5547 25.5 75.7188C25.4922 77.4453 25.4609 77.9297 25.3594 78.2422C25.1953 78.7656 25.2031 79.2109 25.3906 79.6172C25.4766 79.8125 25.5469 80.1328 25.5469 80.3594C25.5469 81.2188 25.125 82.8516 24.5547 84.1641C23.7578 86.0078 23.5234 86.9297 23.4609 88.3594C23.4219 89.4531 23.3516 89.7031 23.0469 89.9219C22.3281 90.4297 21.7969 92.5625 21.7969 94.9297C21.7969 96.2266 21.8672 96.7734 22.125 97.5781C22.6172 99.1094 25.3437 100.461 26.6953 99.8516C27.1875 99.625 27.3672 99.2813 28.4219 96.5234C29.2812 94.2891 29.9453 92.7188 31.7422 88.6719C33.6641 84.3516 34.7344 81.8047 35.0234 80.8984C35.125 80.5547 35.3281 79.6797 35.4687 78.9453C35.7812 77.3203 36.4609 74.5703 36.7891 73.6719C37.0625 72.9141 37.2734 72.0703 37.4609 71.0547C37.6719 69.8594 37.9531 68.8672 38.3594 67.8047C39.5703 64.6875 39.8672 62.5156 39.6875 58.3047C39.6172 56.6484 39.6094 55.5078 39.6562 54.5078C39.6953 53.7266 39.7266 52.6641 39.7266 52.1484C39.7266 51.6172 39.7656 51.0938 39.8203 50.9375C40 50.4297 40.0781 49.3125 40.1562 46.4297C40.1953 44.8516 40.2656 43.3125 40.3125 43.0078C40.3594 42.7109 40.4297 42.0078 40.4609 41.4453C40.5156 40.6641 40.5703 40.3359 40.7031 40.0391C41.0469 39.2578 41.1094 38.9141 41.1484 37.3672C41.2109 35.1563 40.9687 33.1719 40.2969 30.3125C40.0547 29.2656 39.9687 28.7266 39.9375 28.0313L39.9062 27.1094L40.7187 27.5313C41.1719 27.7656 41.6719 27.9844 41.8359 28.0156C42.0859 28.0625 42.1484 28.0391 42.2656 27.8906C42.5937 27.4531 43.5078 25.0547 43.7578 23.9922C43.8437 23.625 44.0703 22.8438 44.2578 22.25C44.6016 21.2031 44.6094 21.1719 44.6406 19.9063C44.6641 19.0547 44.6328 18.3984 44.5625 17.9297ZM40.7422 26.7969C40.5625 26.7969 40.2187 26.4297 40.25 26.2734C40.2891 26.0781 40.4219 26.0703 40.6484 26.25C40.8828 26.4375 40.9375 26.7969 40.7422 26.7969ZM39.6875 37.875C39.5391 38.0938 39.3125 38.1719 39.1719 38.0391C39.1172 37.9766 38.9687 37.5625 38.8359 37.125C38.7109 36.6797 38.5781 36.2891 38.5547 36.2656C38.4453 36.1484 38.2812 36.5391 38.2812 36.9063C38.2812 37.3906 38.4766 38.25 38.6406 38.5C38.7031 38.6016 38.9141 38.75 39.1094 38.8281C39.5 39 39.5234 39.0859 39.2891 39.5391C39.125 39.8594 39.0859 39.875 38.7344 39.7266C38.2969 39.5469 38.3594 41.6016 38.8672 44.2578C38.9844 44.8594 39 45.2813 38.9609 47.1875C38.9297 48.5078 38.8516 50.0625 38.7578 51.0156C38.6719 51.8984 38.5391 53.1641 38.4766 53.8281C38.4062 54.4922 38.3203 55.8672 38.2812 56.875C38.2344 58.1016 38.1719 58.8516 38.0937 59.1406C37.9219 59.75 37.9375 60.0547 38.1797 60.7969C38.375 61.375 38.3984 61.5547 38.3906 62.4609C38.3828 64.0234 38.0391 65.4375 36.875 68.7109C36.0625 71 35.3984 73.5938 34.1406 79.3359C33.5078 82.2188 33.3906 82.5547 31.0312 87.6641C28.2812 93.6328 27.8594 94.6406 27.4844 96.2109C27.1016 97.8281 26.7266 98.4688 26.25 98.3203C26.0156 98.25 25.4844 97.7578 25.3516 97.5C25.1797 97.1641 25.1406 96.5781 25.2344 95.8203C25.2812 95.4375 25.3437 94.7891 25.3672 94.3984C25.4141 93.5781 25.3359 93.4688 25.0781 93.9844C24.8516 94.4375 24.7031 95.0703 24.5781 96.1641C24.5156 96.6875 24.4219 97.1719 24.3672 97.2344C24.2187 97.4141 24.0859 97.3594 23.9375 97.0547C23.8125 96.8047 23.7891 96.5703 23.7891 95.5078C23.7891 94.8203 23.8125 93.9922 23.8437 93.6719L23.8984 93.0859L23.6406 93.6094C23.3281 94.2734 23.2422 94.3672 23.1328 94.1641C22.9922 93.8906 23.2969 92.8594 24.2422 90.4688C24.8672 88.8906 25.0781 88.2188 25.4687 86.6094C25.6328 85.9141 25.9141 84.9297 26.0937 84.4141C27 81.8125 27.0312 81.6172 27.2266 78.4766C27.3906 75.7656 27.5078 75.1406 27.9141 74.7969C28.0312 74.6953 28.2187 74.6094 28.3203 74.6094C28.4453 74.6094 28.5937 74.5 28.7656 74.2891C29.4219 73.4609 29.7344 73.1797 30.4687 72.7734C31.4297 72.2344 31.6328 72.0703 31.5078 71.9531C31.4531 71.8906 31.3047 71.875 31.1172 71.8984C30.0625 72.0547 30 72.0547 30 71.9297C30 71.7578 30.5078 71.5859 31.9062 71.2891C32.5937 71.1406 33.2031 70.9688 33.2656 70.9063C33.4219 70.7578 33.3203 70.625 33.0469 70.625C32.9219 70.625 32.7969 70.5938 32.7734 70.5469C32.7109 70.4375 33.0703 70.125 33.5859 69.8281C34.3125 69.4141 34.5234 69.2344 34.5469 68.9688C34.5625 68.7813 34.6562 68.6641 34.9219 68.4766C35.3594 68.1719 35.3828 68 35 68.0313C34.3594 68.0938 34.2656 68.0859 34.2344 67.9609C34.2187 67.8828 34.3125 67.7656 34.4766 67.6641C34.8359 67.4453 36.5391 65.6797 36.4297 65.6484C36.375 65.625 36.1562 65.6719 35.9297 65.7344C35.2031 65.9531 35.2344 65.625 36 65.0625C36.8984 64.4063 37.0859 64.1484 36.8594 63.9219C36.7031 63.7656 36.4453 63.8125 35.6797 64.1172C34.9453 64.4063 34.75 64.4297 33.9844 64.3359C33.6484 64.2891 33.4297 64.3203 32.9766 64.4531C32.4922 64.6016 32.2891 64.625 31.6484 64.5859C30.5312 64.5234 28.8672 64.0234 28.9844 63.7891C29.0078 63.75 29.2734 63.7188 29.5703 63.7266C29.875 63.7344 30.6094 63.75 31.2109 63.7578C31.8125 63.7734 32.3984 63.7578 32.5234 63.7266C32.7969 63.6484 32.8047 63.4063 32.5234 63.2266C32.3437 63.1094 32.0781 63.0781 30.8594 63.0469C30.0625 63.0234 29.3672 62.9766 29.3125 62.9375C29.0937 62.8047 29.375 62.7266 30.3594 62.6484C33.2031 62.4375 33.4687 62.4063 33.4141 62.2344C33.3359 62 32.9297 61.9219 31.7969 61.9375C30.6016 61.9453 30.3047 61.8828 30.5781 61.6797C30.6641 61.6172 30.8594 61.5469 31.0078 61.5156C31.5859 61.4219 31.8125 61.3203 31.7578 61.1797C31.6094 60.8438 31.6406 60.7813 32.1719 60.2031C32.8906 59.4297 33.0859 58.9531 33.0078 58.1641C32.9375 57.4531 32.9375 57.25 33.0078 56.6641C33.0703 56.1797 33.0703 56.1719 32.875 56.1719C32.7656 56.1719 32.625 56.2344 32.5547 56.3125C32.3125 56.5781 32.0312 57.3125 31.9531 57.8906C31.8906 58.3828 31.8359 58.5078 31.6484 58.6797C31.4141 58.8984 30.4453 59.2734 29.4687 59.5313C28.5625 59.7734 26.8047 60.0234 26.4453 59.9609C26.2734 59.9375 25.625 59.7422 25 59.5391C23.9141 59.1719 23.4219 59.0469 21.5469 58.6641C20.25 58.4063 20.0703 58.1563 21.1953 58.1797C21.9453 58.1875 22.8984 58.3516 24.1406 58.6875C24.6328 58.8203 25.3203 58.9922 25.6641 59.0781C26.3984 59.25 28.2578 59.3516 28.4375 59.2266C28.6875 59.0469 28.375 58.9688 26.8125 58.8281C25.8203 58.7344 25.25 58.5625 25.4922 58.4297C25.5703 58.3828 25.8672 58.3125 26.1562 58.2734C26.8594 58.1797 27.0312 58.1328 27.0312 58.0469C27.0312 57.9609 26.6953 57.8672 25.5859 57.6563C25.1172 57.5625 24.6094 57.4375 24.4531 57.375C24.1875 57.2578 24.1875 57.25 24.3359 57.1406C24.4687 57.0391 24.6641 57.0234 25.5156 57.0703C26.3828 57.1172 26.5781 57.1016 26.7891 57C26.9219 56.9297 27.0312 56.8438 27.0312 56.8047C27.0312 56.7656 26.7734 56.7266 26.4531 56.7031C25.5781 56.6641 25.3828 56.3672 26.1094 56.1719C26.4531 56.0781 26.7344 55.8359 26.6797 55.6875C26.6484 55.6172 26.3828 55.5859 25.7187 55.5781C25.2187 55.5703 24.5469 55.5078 24.2266 55.4375C23.2266 55.2266 23.3359 55.1563 24.8359 55.0469C25.4844 54.9922 26.0312 54.9297 26.0625 54.8984C26.0937 54.8672 26.0781 54.7969 26.0234 54.7422C25.9609 54.6719 25.3203 54.6328 23.7656 54.6016C20.7187 54.5313 19.3359 54.2656 17.0156 53.3125C16.5547 53.125 16.1094 52.9688 16.0156 52.9688C15.8359 52.9688 15.7969 53.2109 15.9609 53.3438C16.0625 53.4297 19.5156 54.5469 20.6953 54.8828C21.5547 55.125 21.875 55.2734 21.875 55.4297C21.875 55.7734 21.25 55.7344 19.4687 55.2734C17.1406 54.6641 14.6094 53.4844 14.6094 53C14.6094 52.9453 14.75 52.8203 14.9141 52.7344C15.0859 52.6563 15.2891 52.4922 15.3828 52.3828C15.6094 52.0859 16.1641 51.6797 16.8359 51.3203C17.2812 51.0781 17.5156 51 17.8281 50.9922C18.0469 50.9844 18.2422 50.9375 18.2578 50.8906C18.3047 50.7422 17.9219 50.3516 17.5859 50.1953C17.4062 50.1172 17.2656 50.0078 17.2656 49.9609C17.2656 49.7266 18.4062 48.8594 19.25 48.4688L19.6484 48.2734L19.1016 48.3125C18.8047 48.3359 18.2578 48.4375 17.8906 48.5469C17.5312 48.6563 17.2187 48.7266 17.1953 48.7109C17.125 48.6328 17.4453 48.3672 17.8906 48.1328C18.6016 47.75 19.4375 47.5703 20.1719 47.625C20.8906 47.6875 20.9609 47.5938 20.5078 47.1953C20.2578 46.9766 20.1797 46.9531 19.7031 46.9531C19.3516 46.9531 18.9453 47.0234 18.5078 47.1563C17.1016 47.5859 16.9609 47.6172 16.8594 47.5156C16.6328 47.2891 17.6797 46.6328 18.5937 46.4375C19.1094 46.3359 19.2109 46.3359 19.9687 46.4844C21.1641 46.7109 22.3437 46.6797 22.3437 46.4141C22.3437 46.2734 22.0625 46.1797 21.375 46.0938C21 46.0469 20.5156 45.9375 20.2969 45.8516C19.8359 45.6719 19.7656 45.6797 18.2031 46.0938C16.4687 46.5625 16.2656 46.5313 16.9141 45.9141C17.6562 45.2031 18.7031 44.8516 19.6328 45C20.6797 45.1719 21 45.0391 20.4219 44.6797C20.0781 44.4688 19.6875 44.5 18.2812 44.8438C16.4687 45.2813 16.375 45.1641 17.7266 44.0781C18.2031 43.6875 18.1562 43.6406 17.3437 43.7031C16.9531 43.7344 16.6406 43.7266 16.6406 43.6875C16.6406 43.5547 17.0781 43.2109 17.4453 43.0547C17.6484 42.9688 18.2266 42.7656 18.7344 42.6094C19.8203 42.2734 20.3906 42.0391 20.3906 41.9297C20.3906 41.7188 17.8359 42.2891 16.7891 42.7344C16.4844 42.8594 16.2031 42.9688 16.1641 42.9688C15.9922 42.9688 16.125 42.75 16.5547 42.3359C17.0937 41.8047 17.5391 41.5703 18.4766 41.2969C19.2891 41.0625 19.625 40.875 19.4297 40.7734C19.3516 40.7266 19.0234 40.7734 18.5 40.8984C17.7031 41.0938 17.1094 41.1484 17.1094 41.0313C17.1094 41 17.2109 40.9063 17.3437 40.8359C17.9141 40.4922 18.2422 40.0781 17.9297 40.0781C17.8594 40.0781 17.5547 40.2031 17.2422 40.3516C16.5937 40.6641 16.1719 40.7109 16.1719 40.4688C16.1719 40.2422 16.6172 39.8516 17.5078 39.3203C18.5 38.7344 18.6484 38.625 18.5703 38.5469C18.5391 38.5156 18.2109 38.6172 17.8437 38.7813C17.4766 38.9453 17.125 39.0547 17.0625 39.0313C16.8437 38.9453 16.9609 38.6797 17.3906 38.2891C17.9062 37.8125 18.6484 37.3906 19.7266 36.9453C20.6172 36.5859 20.9141 36.3984 20.8203 36.25C20.7187 36.0859 20.1641 36.2188 18.7187 36.7578C17.9687 37.0391 17.3125 37.2656 17.2656 37.2656C17.125 37.2656 17.1797 37.0547 17.3906 36.8516C17.6797 36.5547 18.2344 36.3125 20.1875 35.6172C21.125 35.2813 21.9375 34.9688 21.9844 34.9219C22.1328 34.7734 21.1719 34.8359 20.1953 35.0391C19.1484 35.2578 18.7187 35.2891 18.7656 35.1406C18.8125 34.9766 19.75 34.5547 21.3437 33.9922C23.1562 33.3438 23.4375 33.2266 23.4375 33.1094C23.4375 33 22.1094 33.0703 21.2109 33.2344C20.3359 33.3906 19.9922 33.4219 19.7656 33.3594C19.5859 33.3047 19.6016 33.2891 20 33.1094C20.7891 32.7422 22.6875 32.1797 23.7734 31.9922C23.9297 31.9609 24.0625 31.8984 24.0625 31.8516C24.0625 31.7734 20.6328 31.8281 19.8828 31.9219L19.4922 31.9766L19.7031 31.8047C20.0391 31.5391 20.7344 31.25 21.2656 31.1641C22.1484 31.0156 24.9062 31.2266 25.375 31.4766C25.6094 31.6016 25.8359 31.5859 25.8906 31.4375C25.9922 31.1641 25.6641 31.0078 24.3437 30.7031C23.5156 30.5078 23.4453 30.4766 23.6328 30.3359C23.9531 30.1094 25.3047 30.2344 26.6016 30.6172C26.8984 30.7109 27.25 30.7813 27.3828 30.7813C27.5078 30.7813 27.7969 30.8672 28.0234 30.9766C28.7734 31.3203 30.8906 31.9453 30.9922 31.8516C31.0547 31.7813 30.2891 31.4141 29.375 31.0781C27.875 30.5234 25.7812 29.9375 23.9531 29.5625C23.0547 29.3828 22.7969 29.2813 22.9141 29.1641C23.0391 29.0391 25.4844 29.1484 25.6484 29.2891C25.7891 29.3984 26.0937 29.3828 26.1172 29.2578C26.125 29.2188 25.9375 29.1016 25.7109 29.0156C25.1562 28.7891 24.9609 28.625 25.0781 28.4688C25.1328 28.4063 25.2891 28.3594 25.4219 28.3516C25.875 28.3359 26.0547 28.25 26.0547 28.0469C26.0547 27.9063 25.9687 27.8125 25.7422 27.6797C25.2266 27.3906 25.3281 27.3047 26.1719 27.3047C27.0703 27.3125 27.5625 27.4844 28.1953 28C28.4219 28.1875 28.9297 28.5313 29.3125 28.7578C29.7031 28.9844 30.0312 29.2188 30.0625 29.2813C30.0859 29.3438 30.0234 29.5469 29.9219 29.7344C29.8125 29.9219 29.75 30.0938 29.7812 30.1172C29.8047 30.1406 30.1719 30.2422 30.5937 30.3516C31.4844 30.5625 31.8125 30.6797 31.8828 30.7969C31.9141 30.8438 31.9922 30.8594 32.0625 30.8359C32.2266 30.7734 32.1719 30.5156 31.8594 29.8594C31.5781 29.2578 31.3359 29.0703 29.9922 28.3984C28.9766 27.8828 28.5156 27.5703 28.5156 27.375C28.5156 27.1875 28.7109 27.1719 29.2344 27.3047C30.0078 27.5 32.0547 28.3438 32.5547 28.6719C32.8047 28.8438 33.0234 28.9375 33.0391 28.8984C33.0781 28.7734 32.8047 28.5156 32.3984 28.3125C32.1953 28.2031 31.8984 28 31.7422 27.8516C31.3906 27.5234 30.4844 27.1484 28.9766 26.7188C27.5781 26.3203 27.3281 26.1797 27.6094 25.9453C27.6953 25.8672 27.8047 25.875 28.0859 25.9688C28.4609 26.1016 29.6953 26.1484 29.5703 26.0234C29.4219 25.8984 28.4219 25.6094 28.0312 25.5859C27.5859 25.5625 27.4766 25.4844 27.5156 25.2344C27.5547 24.9531 28.0312 24.7578 28.7734 24.7109C29.3594 24.6719 29.4844 24.6953 30.25 24.9453C30.7109 25.1016 31.5078 25.4219 32.0312 25.6563C32.8125 26.0078 33.0312 26.1484 33.3281 26.4766C33.9141 27.125 34.4531 27.3672 34.4531 26.9688C34.4531 26.8047 34.0781 26.4297 33.6562 26.1797C33.2969 25.9688 32.9687 25.5859 32.9687 25.3828C32.9687 25.125 32.8906 25.1016 36.2031 26.3828C36.5781 26.5313 36.9062 26.6328 36.9297 26.6094C37.0391 26.5078 35.125 25.3438 34.2656 24.9922C34.0156 24.8906 33.7422 24.7188 33.6562 24.6094C33.5078 24.4219 33.5078 24.4141 33.6562 24.3516C33.8594 24.2578 34.7187 24.5 36.0156 25C37.1328 25.4297 37.3359 25.4609 37.4844 25.2344C37.5937 25.0547 37.8672 25.0313 38.2266 25.1797C38.5859 25.3359 38.6406 25.4297 38.8672 26.2578C39.0312 26.8516 39.0859 27.2656 39.1406 28.4375C39.1797 29.2344 39.2812 30.5859 39.375 31.4453C39.4687 32.3047 39.6094 33.6094 39.6875 34.3359C39.8594 35.9219 39.8594 37.6094 39.6875 37.875ZM31.7031 68.4688C31.3359 68.7266 30.9844 68.5547 31.1719 68.2109C31.2656 68.0234 31.625 67.9844 31.7812 68.1406C31.9141 68.2734 31.8984 68.3359 31.7031 68.4688ZM30.5859 65.5234C29.7109 65.4766 28.2969 65.2031 26.8672 64.8047C25.875 64.5313 25.7266 64.4531 25.8203 64.2969C25.9141 64.1484 26.8672 64.25 28.1328 64.5234C28.7187 64.6563 29.6094 64.8281 30.1094 64.9219C30.6172 65.0078 31.1562 65.1328 31.3047 65.1953C31.5469 65.2969 31.5703 65.3281 31.4766 65.4375C31.3828 65.5469 31.25 65.5625 30.5859 65.5234ZM31.2109 69.8125C31.1484 69.8438 31.0391 69.8203 30.9766 69.7656C30.8281 69.6406 30.9609 69.4531 31.1797 69.4531C31.3594 69.4531 31.3828 69.75 31.2109 69.8125ZM30.1484 23.7422C30.0234 23.6953 29.9219 23.625 29.9219 23.5859C29.9219 23.4688 30.375 23.5078 30.6875 23.6484L30.9766 23.7813L30.6719 23.8125C30.5078 23.8281 30.2734 23.7969 30.1484 23.7422ZM28.9609 66.5859C28.0937 66.5703 26.7734 66.2578 25.7656 65.8203C25.0391 65.5156 24.6562 65.2109 24.8828 65.1328C25.0391 65.0703 25.6562 65.1875 26.4219 65.4297C27.1406 65.6563 27.7969 65.8047 28.8281 65.9766C29.2344 66.0469 29.6562 66.1563 29.7578 66.2266C29.9297 66.3359 29.9297 66.3516 29.8125 66.4688C29.7031 66.5781 29.5391 66.6016 28.9609 66.5859ZM29.5312 70.8984C29.4141 70.9688 29.0625 70.7266 29.0625 70.5781C29.0625 70.4219 29.25 70.3594 29.4453 70.4688C29.6172 70.5547 29.6641 70.8125 29.5312 70.8984ZM27.6484 67.5625C26.3594 67.6172 23.2812 66.6563 23.2812 66.1953C23.2812 66.0078 23.8594 66.1016 25.8203 66.6016C26.7422 66.8359 27.5859 67.0313 27.6953 67.0313C28.0078 67.0313 28.2187 67.1719 28.1875 67.3672C28.1641 67.5234 28.1094 67.5391 27.6484 67.5625ZM27.6953 63.5156C27.4766 63.5156 27.1562 63.2422 27.2266 63.125C27.2969 63.0078 27.5234 63.0313 27.7187 63.1719C27.9531 63.3359 27.9375 63.5156 27.6953 63.5156ZM27.3281 68.8906C27.1719 69.0469 26.3203 69 25.5391 68.7891C24.6328 68.5547 21.5234 67.4844 21.0937 67.2656C20.9219 67.1797 20.7812 67.0469 20.7812 66.9766C20.7812 66.7734 21.3125 66.8828 23.5937 67.5391C24.7344 67.8672 25.8906 68.1641 26.1719 68.2031C26.75 68.2656 27.4219 68.5313 27.4219 68.6875C27.4219 68.75 27.3828 68.8359 27.3281 68.8906ZM27.0156 24.3594C26.8047 24.5469 26.4687 24.6875 26.2031 24.6875C26.0547 24.6875 26.0156 24.6484 26.0156 24.5C26.0156 24.1406 26.6875 23.7969 27.0234 23.9844C27.2344 24.0938 27.2266 24.1563 27.0156 24.3594ZM26.1953 69.9844C25.8125 70.0078 25.7187 69.9922 25.5937 69.8516C25.5078 69.7578 25.4687 69.6641 25.5 69.625C25.5937 69.5391 26.1719 69.5703 26.5078 69.6797C26.9141 69.8125 26.7812 69.9375 26.1953 69.9844ZM26.2969 22.8125C26.1562 22.9219 25.8437 22.8906 25.8047 22.7578C25.7578 22.6328 26.1406 22.3906 26.2891 22.4531C26.4375 22.5078 26.4375 22.6875 26.2969 22.8125ZM26.1484 26.625C25.8516 26.6641 25.6797 26.5156 25.7891 26.3203C25.875 26.1563 26.0312 26.1328 26.2578 26.2578C26.4766 26.375 26.4141 26.5938 26.1484 26.625ZM25.5078 18.2656C25.2812 18.1641 25.25 17.9688 25.4531 17.9688C25.6328 17.9688 25.7031 18.0313 25.7031 18.2109C25.7031 18.3359 25.6797 18.3438 25.5078 18.2656ZM25.5 20.6563C25.3594 20.7109 25 20.6328 25 20.5469C25 20.4609 25.2031 20.3906 25.4375 20.3906C25.6484 20.3906 25.6953 20.5781 25.5 20.6563ZM25.2187 21.7969C25.0312 21.8516 24.8047 21.9375 24.7031 22C24.5391 22.1094 24.5234 22.1563 24.5703 22.5391C24.625 22.9219 24.6094 22.9609 24.4453 23.0547C24.2109 23.1797 23.4687 23.1875 23.3437 23.0625C23.2734 22.9922 23.2891 22.9297 23.4141 22.7969C23.5078 22.6953 23.7031 22.4063 23.8437 22.1484C24.1328 21.6328 24.5156 21.3281 24.8594 21.3281C25.0937 21.3281 25.5469 21.5469 25.5469 21.6563C25.5469 21.6875 25.3984 21.75 25.2187 21.7969ZM24.3203 69.5859C23.25 69.5 21.7344 69.0156 20.1953 68.2813C19.3906 67.8906 19.0781 67.6875 19.1562 67.6094C19.2344 67.5391 20.6797 67.9375 21.875 68.3594C22.5 68.5859 23.1875 68.8047 23.4141 68.8594C23.6484 68.9063 23.9141 69.0391 24.0391 69.1484C24.3125 69.4063 24.5469 69.5313 24.7578 69.5313C24.8516 69.5313 24.9219 69.5547 24.9219 69.5781C24.9219 69.6094 24.6484 69.6094 24.3203 69.5859ZM24.5156 60.5C24.4219 60.5547 24.1875 60.5234 23.6953 60.3984C23.0078 60.2188 22.3594 60.0781 21.5625 59.9375C21.3281 59.8906 21.0312 59.8203 20.8984 59.7656C20.6719 59.6797 20.6641 59.6719 20.8203 59.5547C21.0156 59.4063 21.8672 59.4609 23.0078 59.6953C24.5078 60.0078 24.9297 60.2344 24.5156 60.5ZM23.5625 56.3281C23.3984 56.3203 23.3984 56.3203 23.5469 56.2109C23.6328 56.1484 23.7734 56.0938 23.8594 56.0938C24.0234 56.1016 24.0234 56.1016 23.875 56.2109C23.7891 56.2734 23.6484 56.3281 23.5625 56.3281ZM23.8906 71.8594C23.7578 71.9922 23.375 71.9766 22.9297 71.8047C22.7187 71.7266 22.0156 71.5469 21.3828 71.4063C19.0781 70.9219 15.75 69.5859 15.9609 69.2422C16.0391 69.1094 16.5 69.2422 18.1094 69.8516C20.9844 70.9375 22.7422 71.4844 23.375 71.4844C23.6797 71.4844 23.9844 71.5938 23.9844 71.7031C23.9844 71.7422 23.9453 71.8047 23.8906 71.8594ZM23.1016 70.6016C22.1875 70.5391 17.7812 69.0234 17.4609 68.6719C17.1875 68.375 17.5469 68.3984 18.5469 68.7422C20.0391 69.2656 20.7031 69.4531 21.2109 69.5078C22.0937 69.5938 23.6719 70.25 23.6719 70.5234C23.6719 70.6328 23.5937 70.6406 23.1016 70.6016ZM23.4766 61.7969C23.3203 61.9297 22.9375 61.8594 21.8984 61.5156C20.4687 61.0391 19.7734 60.6484 20.125 60.5156C20.2891 60.4531 20.7891 60.5703 21.9375 60.9531C23.0937 61.3203 23.5937 61.5313 23.5937 61.625C23.5937 61.6641 23.5391 61.7422 23.4766 61.7969ZM23.3125 28.3594C23.0547 28.4609 22.6406 28.4609 22.3672 28.3516C22.1641 28.2734 22.1562 28.2656 22.2891 28.1641C22.6016 27.9375 23.5156 27.9609 23.5156 28.2031C23.5156 28.25 23.4219 28.3203 23.3125 28.3594ZM22.6484 57.1406C21.8047 57.125 21.0937 56.9609 18.9766 56.2969C16.1797 55.4141 14.2969 54.5156 14.2969 54.0625C14.2969 53.9219 14.3203 53.9219 14.6328 54.0156C14.8125 54.0703 15.5781 54.3672 16.3281 54.6719C18 55.3438 18.7422 55.5859 20.7031 56.0938C22.3906 56.5313 23.1875 56.7734 23.3437 56.8984C23.5703 57.0781 23.375 57.1484 22.6484 57.1406ZM22.1094 72.8359C21.8281 72.8359 21.0156 72.7031 20.3047 72.5469C18.5234 72.1641 18.2812 72.1328 18.2812 72.2969C18.2812 72.5938 19 73.0625 19.6875 73.2109C20.1172 73.3047 20.1641 73.4297 19.8203 73.5469C19.5391 73.6484 18.4766 73.375 17.5781 72.9766C17.1875 72.7969 16.4766 72.5469 16 72.4219C14.7031 72.0625 13.2031 71.3984 13.2031 71.1797C13.2031 71.1406 13.2578 71.0703 13.3203 71.0156C13.4844 70.8828 14.1016 71.0547 15.3125 71.5625C16.8281 72.1953 17.5781 72.3438 17.6406 72.0078C17.6719 71.8516 17.1719 71.5938 14.8594 70.5938C13.3516 69.9453 13.0078 69.7656 13.0547 69.6484C13.125 69.4688 13.7734 69.625 14.9687 70.1094C16.6172 70.7813 17.7891 71.2109 19.4141 71.75C20.1484 71.9922 20.8594 72.2578 21 72.3438C21.2031 72.4688 21.3906 72.5 21.9062 72.5C22.5781 72.5 22.6797 72.5313 22.6406 72.7344C22.6172 72.8281 22.5078 72.8516 22.1094 72.8359ZM22.4219 64.0234C22.3828 64.0469 22.1484 64.0156 21.8984 63.9531C21.6484 63.8906 21.1797 63.7969 20.8594 63.75C19.4687 63.5234 15.6797 62.0859 15.2656 61.625C15.1484 61.5078 15.1406 61.4609 15.2266 61.4141C15.375 61.3203 15.8203 61.4375 16.8906 61.8672C18.1875 62.3828 19.0234 62.6719 20.5469 63.1328C22.3125 63.6719 22.6953 63.8516 22.4219 64.0234ZM22.0391 20.625C21.8437 20.7266 21.6406 20.6484 21.6406 20.4688C21.6406 20.3906 21.6953 20.3047 21.7656 20.2813C21.8984 20.2266 22.1875 20.3594 22.1875 20.4688C22.1875 20.5078 22.1172 20.5781 22.0391 20.625ZM21.875 62.6953C21.7734 62.7578 20.3203 62.4531 19.7812 62.25C19.5391 62.1641 19.1953 61.9844 19.0234 61.8672C18.8359 61.7266 18.5234 61.6094 18.2422 61.5547C17.2812 61.3828 16.9922 61.2891 16.9687 61.1563C16.8984 60.7969 17.8359 60.9453 19.2656 61.5234C19.8359 61.75 20.5547 62 20.8672 62.0703C21.1875 62.1406 21.5625 62.25 21.7031 62.3125C21.9453 62.4141 22.0312 62.6016 21.875 62.6953ZM20.3984 64.6484C20.2187 64.7031 19.3437 64.4922 19.0469 64.3125C18.7266 64.125 18.8672 64.0391 19.3828 64.0938C20.2656 64.1953 20.8359 64.5078 20.3984 64.6484ZM20.0156 23.5C19.8359 23.6016 19.6328 23.6641 19.5703 23.6406C19.2812 23.5313 19.5937 22.4219 19.9141 22.4219C20.1406 22.4219 20.4062 22.7969 20.375 23.0781C20.3594 23.2656 20.2812 23.3594 20.0156 23.5ZM20.1641 57.8125C20.0391 58.0078 19.625 57.9219 17.9141 57.3516C14.9844 56.3672 12.9687 55.3906 12.9687 54.9453C12.9687 54.7813 13.2031 54.8516 14.2969 55.3281C16.1719 56.1484 17.3203 56.5781 18.3125 56.8438C19.4687 57.1484 19.8984 57.3047 20.1016 57.4766C20.25 57.6172 20.2578 57.6484 20.1641 57.8125ZM19.4844 74.7188C19.1094 74.8594 17.7187 74.4844 15.7344 73.7109C14.2187 73.1172 13.6719 72.8516 13.6719 72.6953C13.6719 72.4297 14.4297 72.625 16.4062 73.3984C17.2266 73.7266 18.2031 74.0703 18.5859 74.1719C19.5469 74.4297 19.8125 74.5938 19.4844 74.7188ZM18.875 18.2656C18.7656 18.3125 18.4687 18.3984 18.2109 18.4453C17.7969 18.5313 17.7031 18.5313 17.4609 18.4141C17.2422 18.3125 17.1797 18.2422 17.2031 18.1016C17.2266 17.9453 17.2656 17.9297 17.7734 17.9297C18.4062 17.9375 19.0625 18.0313 19.0625 18.1172C19.0625 18.1484 18.9766 18.2188 18.875 18.2656ZM18.4375 65.3906C17.5859 65.3906 14.75 64.3359 14.0625 63.7578L13.8672 63.6016L14.0469 63.5938C14.1406 63.5938 14.4453 63.6875 14.7109 63.7969C14.9766 63.9141 15.7422 64.1875 16.4141 64.4141C18.1875 65.0078 18.9766 65.3906 18.4375 65.3906ZM18.1719 64.1406C17.5937 64.1406 15.1719 63.1719 13.8281 62.3984C13.1562 62.0156 13.0625 61.875 13.4844 61.875C13.75 61.875 17.0156 63.1094 17.8437 63.5313C18.4844 63.8516 18.6406 64.1406 18.1719 64.1406ZM17.7266 75.6563C17.3281 75.6563 17.0156 75.5781 16.2109 75.2813C15.0469 74.8516 14.1953 74.4531 14.1562 74.3203C14.1406 74.2734 14.2031 74.1875 14.2891 74.1484C14.5312 74.0156 15.0312 74.1563 16.3906 74.7344C17.0391 75.0156 17.7109 75.2656 17.875 75.2891C18.1641 75.3359 18.2969 75.4375 18.25 75.5859C18.2422 75.6328 18 75.6641 17.7266 75.6563ZM18 23.2578C17.8125 23.4453 17.7656 23.4531 17.2031 23.4141C16.5391 23.3672 15.3906 23.0234 15.1953 22.8125C15.0859 22.6953 15.0859 22.6719 15.2109 22.5625C15.4609 22.3516 15.8828 22.25 16.7734 22.2109C17.5156 22.1719 17.6797 22.1875 17.8516 22.2969C18.2344 22.5469 18.2969 22.9609 18 23.2578ZM17.8437 25.6094C18 26.1016 17.1953 26.3516 16.6562 25.9688C16.4062 25.7969 16.5469 25.6563 17.0781 25.5469C17.3125 25.5 17.5 25.4219 17.5 25.3828C17.5 25.3438 17.4687 25.3125 17.4297 25.3125C17.3125 25.3125 16.9453 24.9219 16.9922 24.8438C17.0625 24.7266 17.3984 24.75 17.6797 24.8906C18.0078 25.0625 18.0625 25.1641 17.9219 25.3281C17.8516 25.3984 17.8203 25.5234 17.8437 25.6094ZM17.1484 20.1406C16.25 20.1719 15.9219 20.0625 16.3516 19.8672C16.9062 19.6094 17.8516 19.6875 17.7969 19.9844C17.7734 20.0938 17.6719 20.1172 17.1484 20.1406ZM17.5781 35.6953C17.4844 35.875 17.0781 36.0469 16.9141 35.9844C16.7266 35.9141 16.8906 35.6719 17.2266 35.5156C17.5937 35.3359 17.7344 35.4141 17.5781 35.6953ZM17.4453 21.3984C17.2266 21.5078 16.2344 21.6406 15.5937 21.6406C14.75 21.6406 14.375 21.4609 14.7734 21.25C15 21.125 16.7656 20.9844 17.2109 21.0469C17.5937 21.1094 17.6953 21.2578 17.4453 21.3984ZM17.2187 58.0234C17.1484 58.0469 16.7734 57.9609 16.375 57.8203C15.9844 57.6875 15.5625 57.5781 15.4453 57.5781C15.1953 57.5781 13.2578 56.6016 12.7187 56.2109C12.4453 56.0078 12.3437 55.8828 12.3437 55.7422C12.3437 55.6328 12.3516 55.5469 12.3672 55.5469C12.5078 55.5469 15.4375 56.8594 16.5859 57.4297C17.3359 57.8125 17.4609 57.9297 17.2187 58.0234ZM16.7891 66.125C16.3437 66.1094 13.9531 65.0234 14.1875 64.9453C14.2344 64.9297 14.5547 65.0234 14.8906 65.1563C15.2266 65.2891 15.7812 65.4609 16.1094 65.5469C16.75 65.7031 17.1328 65.9063 17.0859 66.0469C17.0703 66.0938 16.9297 66.1328 16.7891 66.125ZM15.9609 39.4688C15.7109 39.7422 15.3125 39.5391 15.5469 39.2578C15.6875 39.0938 16.0937 39.1094 16.0937 39.2813C16.0937 39.3047 16.0391 39.3906 15.9609 39.4688ZM15.7187 59.0469C15.0469 59.1094 13.2422 58.2969 11.3906 57.0938C10.8281 56.7344 10.6641 56.5625 10.8594 56.5625C11.1016 56.5625 14.2734 57.875 15.3984 58.4453C15.8594 58.6719 16.0156 58.7891 16 58.8906C15.9844 58.9766 15.8828 59.0313 15.7187 59.0469ZM15.6641 42.2344C15.4766 42.2813 15.3203 42.2344 15.3984 42.1563C15.4844 42.0703 15.8594 42.0234 15.8594 42.1016C15.8594 42.1484 15.7734 42.2031 15.6641 42.2344ZM14.9766 37.0234C14.8203 37.1484 14.375 37.2266 14.375 37.125C14.375 37 14.6953 36.7969 14.8984 36.7969C15.1016 36.7969 15.1328 36.8906 14.9766 37.0234ZM14.1172 66.4844C13.8437 66.4844 13.3594 66.2266 13.3594 66.0859C13.3594 65.9766 13.7578 66.0313 14.1719 66.2031C14.5078 66.3438 14.4844 66.4844 14.1172 66.4844ZM12.3125 58.8125C12.0781 58.7813 11.5234 58.5313 10.5469 58.0078C8.9375 57.1406 8.61718 56.9141 8.75781 56.75C8.91406 56.5625 9.1875 56.6328 9.57812 56.9609C9.78906 57.1328 10.5703 57.5781 11.3047 57.9531C12.6953 58.6484 12.9609 58.8828 12.3125 58.8125ZM12.2734 59.8438C12.1172 59.8438 11.9531 59.7422 11.9531 59.6484C11.9531 59.4844 12.1016 59.4297 12.2266 59.5313C12.3594 59.6406 12.3828 59.8438 12.2734 59.8438ZM11.0547 50.2734C10.75 50.2734 10.6797 50.0313 10.9687 49.9531C11.2031 49.8984 11.3437 49.9688 11.3125 50.1406C11.2969 50.2266 11.2109 50.2734 11.0547 50.2734ZM10.9844 60.5313C10.6797 60.5547 10.4687 60.4453 10.4687 60.2656C10.4687 60.1328 10.6406 60.125 11.0391 60.2422C11.4062 60.3438 11.3828 60.5 10.9844 60.5313ZM10.5547 52.1875C10.4062 52.1875 10.0781 52.5859 10.0781 52.7656C10.0781 52.8906 9.97656 53.0391 9.78906 53.1953L9.5 53.4375L9.83593 53.7813C10.1328 54.0781 10.1641 54.1484 10.0781 54.2578C10.0156 54.3359 9.85156 54.375 9.59375 54.375C9.0625 54.375 8.82812 54.1406 8.82812 53.6094C8.82812 53.3984 8.78125 53.1016 8.71875 52.9609C8.53906 52.5234 8.78906 51.6172 9.15625 51.375C9.42968 51.1953 10 51.375 10.4922 51.7813C10.625 51.8984 10.6797 52.1875 10.5547 52.1875ZM9.75 58.75C9.38281 58.75 8.98437 58.4844 8.98437 58.2422C8.98437 57.8672 9.53906 57.9141 9.85937 58.3125C10.0859 58.5859 10.0391 58.75 9.75 58.75ZM9.64062 55.2344C9.13281 55.2344 8.92187 55 9.1875 54.7344C9.35937 54.5625 9.50781 54.5781 9.72656 54.8047C10.0078 55.0859 9.98437 55.2344 9.64062 55.2344ZM9.71093 59.7656C9.4375 59.7656 8.9375 59.4688 9.03906 59.3672C9.14843 59.2578 9.92187 59.5078 9.92187 59.6484C9.92187 59.7266 9.84375 59.7656 9.71093 59.7656Z" fill="#BA2F2F"/>
<path d="M37.5938 29.9061C37.4766 29.8045 37.1016 29.5077 36.7578 29.2577C36.4141 28.9999 35.9922 28.6639 35.8203 28.5077C35.2578 27.992 34.9297 27.8124 34.5469 27.8124C34.3125 27.8124 33.9844 27.7108 33.5 27.4999C33.1094 27.3202 32.7578 27.1952 32.7109 27.2108C32.6719 27.2186 32.8047 27.3592 33.0234 27.5155C33.3984 27.7967 36.6562 29.8124 37.1875 30.0936C37.6797 30.3514 37.9531 30.2342 37.5938 29.9061Z" fill="#FFADAD"/>
<path d="M36.9141 64.7187C36.8438 64.6874 36.75 64.703 36.7031 64.7499C36.5781 64.8749 36.6641 65.1171 36.8359 65.1171C37.0391 65.1171 37.1016 64.789 36.9141 64.7187Z" fill="#FFADAD"/>
<path d="M33.3437 52.2031C33.2109 51.9297 33.1016 52.0313 32.9141 52.625C32.7422 53.1719 32.6797 53.9375 32.8047 54.0156C32.9922 54.1328 33.4453 53.1875 33.4297 52.6719C33.4297 52.5156 33.3906 52.3047 33.3437 52.2031Z" fill="#FFADAD"/>
<path d="M32.0938 26.7969C31.8203 26.6328 31.4062 26.5859 31.4062 26.7187C31.4062 26.8203 32.0078 27.1015 32.2109 27.1094C32.4219 27.1094 32.3672 26.9687 32.0938 26.7969Z" fill="#FFADAD"/>
<path d="M31.9766 79.125C31.4141 78.5859 31.1719 78.5 31.1719 78.8359C31.1719 79.164 31.8516 79.6875 32.2891 79.6875C32.4375 79.6875 32.3047 79.4531 31.9766 79.125Z" fill="#FFADAD"/>
<path d="M31.8203 82.7968C31.7422 82.7265 31.5391 82.6328 31.3672 82.5859C30.9844 82.4843 30 82.4687 30 82.5703C30 82.664 30.5938 83.1484 30.8984 83.2968C31.3594 83.5312 31.5469 83.539 31.7578 83.3281C31.9844 83.0937 32 82.9609 31.8203 82.7968Z" fill="#FFADAD"/>
<path d="M30.4297 73.5156C30.1484 73.5156 29.3516 74.1406 29.4766 74.2656C29.5469 74.3438 30.2969 73.8984 30.4297 73.7031C30.5391 73.5313 30.5391 73.5156 30.4297 73.5156Z" fill="#FFADAD"/>
<path d="M30.3359 74.6562C30.2578 74.6249 30.125 74.664 30.0078 74.7499C29.6094 75.0468 29.7734 75.1953 30.2344 74.9609C30.5 74.8203 30.5313 74.7265 30.3359 74.6562Z" fill="#FFADAD"/>
<path d="M29.875 84.9531C29.3984 84.1484 29.1797 84.0312 29.1953 84.5781C29.2109 85.0234 29.8438 85.8125 30.0781 85.664C30.2109 85.5859 30.1719 85.4453 29.875 84.9531Z" fill="#FFADAD"/>
<path d="M28.5781 75.2656C28.4844 75.211 28.2812 75.4297 28.2812 75.5938C28.2812 75.7266 28.4922 75.8828 28.5938 75.8203C28.7031 75.7578 28.6953 75.336 28.5781 75.2656Z" fill="#FFADAD"/>
<path d="M24.0156 46.2264C23.9219 46.1405 23.6484 46.1639 23.2578 46.2967C22.8203 46.4452 22.7969 46.5233 23.1562 46.5936C23.5781 46.6717 24.1953 46.4061 24.0156 46.2264Z" fill="#FFADAD"/>
<path d="M23.0469 42.4999C22.8516 42.3905 22.5156 42.4765 22.4219 42.664C22.3594 42.7733 22.375 42.8202 22.4922 42.8905C22.6641 42.9765 22.8984 42.9921 23.0781 42.9218C23.25 42.8515 23.2344 42.6015 23.0469 42.4999Z" fill="#FFADAD"/>
<path d="M22.4062 36.0156C22.2891 36.0156 22.1719 36.0547 22.1484 36.0938C22.0859 36.1953 22.3437 36.1953 22.5 36.0938C22.5937 36.0313 22.5703 36.0156 22.4062 36.0156Z" fill="#FFADAD"/>
<path d="M22.3281 47.6562C22.1484 47.6562 21.9531 47.7422 21.9531 47.8203C21.9531 47.9297 22.1406 47.9063 22.3125 47.7734C22.4375 47.6797 22.4453 47.6641 22.3281 47.6562Z" fill="#FFADAD"/>
<path d="M22.1484 41.5703C22.0625 41.5703 21.9062 41.6172 21.7969 41.6797C21.625 41.7812 21.6172 41.7891 21.7578 41.7891C21.8437 41.7891 22 41.7422 22.1094 41.6797C22.2812 41.5781 22.2891 41.5703 22.1484 41.5703Z" fill="#FFADAD"/>
<path d="M22.1328 43.7186C22.0547 43.6952 21.8125 43.6795 21.5937 43.6795C20.9141 43.6952 20.8437 43.5311 21.3281 43.0936C21.5 42.9374 21.6406 42.7889 21.6406 42.7655C21.6406 42.7342 21.4766 42.7342 21.2812 42.7577C21.0234 42.7811 20.8594 42.8592 20.6797 43.0311C20.4062 43.2967 20.0703 43.3905 19.125 43.4764C18.7891 43.5077 18.5156 43.5624 18.5156 43.6014C18.5156 43.8358 21.1094 44.2264 21.9062 44.1092C22.1875 44.0624 22.2656 44.0233 22.2656 43.9061C22.2656 43.828 22.2031 43.742 22.1328 43.7186Z" fill="#FFADAD"/>
<path d="M22 48.75C21.8281 48.6172 21.1797 48.5391 20.7812 48.6094C20.4219 48.6719 19.0234 49.336 18.6719 49.6094L18.4766 49.7656H18.7734C18.9375 49.7656 19.3516 49.6953 19.6953 49.6094C20.0391 49.5235 20.6484 49.3828 21.0625 49.2969C22.0625 49.086 22.2656 48.9766 22 48.75Z" fill="#FFADAD"/>
<path d="M21.6328 50.0781C20.8672 50.0781 19.5312 50.4297 19.5312 50.6406C19.5312 50.7734 20.3984 50.6719 21.3125 50.4219C21.75 50.3047 22.1094 50.1797 22.1094 50.1406C22.1094 50.1094 21.8984 50.0781 21.6328 50.0781Z" fill="#FFADAD"/>
<path d="M20.8828 51.4844C20.6797 51.4922 20.1328 51.75 20.0078 51.9062C19.7031 52.2656 20.4375 52.1562 20.8359 51.7812C21.0547 51.5781 21.0625 51.4844 20.8828 51.4844Z" fill="#FFADAD"/>
<path d="M20.1328 53.2344C19.7422 53.1016 19.2266 52.9063 19.0078 52.8047C18.5547 52.6094 18.3906 52.6485 18.6797 52.8829C19.1406 53.2657 20.8594 53.7891 20.8594 53.5469C20.8594 53.5079 20.5313 53.3672 20.1328 53.2344Z" fill="#FFADAD"/>
<path d="M35.8984 18.9062C35.8359 18.8515 35.1953 18.6093 34.4766 18.3593C33.75 18.1093 32.7969 17.7734 32.3438 17.6172C31.8047 17.4218 31.3359 17.3125 30.9766 17.289C30.4375 17.2578 30.4297 17.2578 30.6016 17.4062C30.6875 17.4843 31.4297 17.7734 32.2422 18.0468C33.0469 18.3125 33.9844 18.6562 34.3125 18.8047C35.0156 19.1093 35.5781 19.2343 35.8359 19.1328C36.0469 19.0547 36.0547 19.0312 35.8984 18.9062Z" fill="#FFADAD"/>
<path d="M30.5234 7.89844C30.3359 7.75 29.4453 7.58594 27.8906 7.42188C25.9922 7.22656 21.6953 6.83594 20.0781 6.71875C17.8516 6.55469 17.6953 6.53125 17.6953 6.41406C17.6953 6.19531 18.0859 6.02344 18.75 5.9375C20.2578 5.74219 23.4375 4.78125 23.4375 4.53125C23.4375 4.32813 22.1719 3.96875 20.7969 3.78906C19.7109 3.64844 19.5234 3.53906 19.8672 3.23438C20.0859 3.04687 20.0859 3.04687 19.9062 3.04687C19.3516 3.04687 16.1562 3.66406 15.8672 3.82813C15.7578 3.88281 15.7578 3.89844 15.8594 3.9375C15.9219 3.96094 16.875 3.99219 17.9687 4.00781C20.0625 4.04688 21.1406 4.17188 21.5937 4.4375C22.1328 4.75 21.9375 4.85938 20.375 5.11719C17.8203 5.53906 15.2422 6.44531 15.5937 6.79688C15.7266 6.92969 16.7734 7.03125 20.1406 7.22656C24.6406 7.48438 25.5703 7.59375 25.25 7.80469C25.1094 7.89063 24.3125 7.95313 22.0312 8.04688C19.2812 8.16406 17.9297 8.32031 17.0312 8.625C16.6875 8.74219 16.7031 8.74219 17.6562 8.71094C18.1953 8.6875 20.0234 8.65625 21.7187 8.625C23.9453 8.59375 24.9609 8.54688 25.3516 8.46875C26.2344 8.28906 27.9766 8.1875 29.0234 8.26563C30.2969 8.35938 30.8984 8.21094 30.5234 7.89844Z" fill="#FFADAD"/>
<path d="M28.4219 14.7343C28.3203 14.7109 27.1016 14.5937 25.7031 14.4765C22.7891 14.2343 19.7656 14.1875 18.7109 14.3593C17.7266 14.5234 16.3984 14.7734 16.0781 14.8515C15.7344 14.9375 15.6875 15.1328 15.9922 15.2031C16.2891 15.2812 18.0703 15.1797 19.2578 15.0312C20.1016 14.914 20.7891 14.8984 23.3594 14.9218C28.6016 14.9687 28.5391 14.9687 28.5703 14.875C28.5859 14.8281 28.5234 14.7656 28.4219 14.7343Z" fill="#FFADAD"/>
<path d="M27.6719 12.625C27.3203 12.414 23.6875 12.2421 20.3906 12.289C17.4375 12.3281 16.9375 12.3906 16.2578 12.789L15.8984 13.0078L16.5625 13.0312C16.9297 13.0468 17.8281 13 18.5547 12.9218C19.7031 12.8046 20.2812 12.7968 22.8516 12.8593C27.0078 12.9531 27.4766 12.9453 27.625 12.7968C27.7031 12.7265 27.7188 12.6562 27.6719 12.625Z" fill="#FFADAD"/>
<path d="M26.5859 1.67182C25.8203 0.906192 21.3437 0.0858792 17.7734 0.0546292C16.4844 0.0390042 16.0156 0.0858792 16.0156 0.226504C16.0156 0.343692 16.3672 0.390567 17.6719 0.468692C20.0937 0.617129 23.5937 1.28119 23.7266 1.60932C23.8047 1.82807 23.5391 1.9765 22.3281 2.39057C21.6719 2.61713 21.1719 2.80463 21.2266 2.80463C21.2734 2.81244 21.9062 2.7265 22.6328 2.62494C23.3516 2.51557 24.5156 2.35932 25.2109 2.26557C25.9141 2.17963 26.5313 2.08588 26.6016 2.06244C26.7578 1.99994 26.75 1.83588 26.5859 1.67182Z" fill="#FFADAD"/>
<path d="M25.6094 10.7422C25.2656 10.664 23.375 10.4687 22.1094 10.3828C19.5312 10.2109 16.7656 10.4687 16.3906 10.914C16.2812 11.0547 16.4297 11.0468 18.7891 10.8593C20.2578 10.7422 22.9375 10.7656 24.2422 10.9062C25.3594 11.0312 25.7812 11.0156 25.7812 10.8593C25.7812 10.8203 25.7031 10.7656 25.6094 10.7422Z" fill="#FFADAD"/>
</g>
<defs>
<clipPath id="clip0_1_2">
<rect width="100" height="50" fill="white" transform="matrix(0 1 -1 0 50 0)"/>
</clipPath>
</defs>
</svg>
